<svg xmlns="http://www.w3.org/2000/svg" viewBox="0 0 64 64" width="64" height="64"><defs><linearGradient id="g" x1="0" y1="0" x2="1" y2="1"><stop offset="0" stop-color="#3b3ff0"/><stop offset="1" stop-color="#7a3cf0"/></linearGradient></defs><rect width="64" height="64" rx="16" fill="url(#g)"/><path d="M16 26v-6a4 4 0 0 1 4-4h6M38 16h6a4 4 0 0 1 4 4v6M48 38v6a4 4 0 0 1-4 4h-6M26 48h-6a4 4 0 0 1-4-4v-6" fill="none" stroke="#fff" stroke-width="3.5" stroke-linecap="round"/><path d="M35 19 24 35h7l-2 10 11-16h-7z" fill="#ffb703"/></svg>
